# xmcd CD database file
#
# Track frame offsets:
#	150
#	19370
#	29760
#	39511
#	55536
#	72845
#	84219
#	93680
#	113286
#	128414
#	136514
#	153178
#	169740
#	191148
#	202145
#	229819
#
# Disc length: 3091 seconds
#
# Revision: 0
# Processed by: cddbd v1.5.2PL0 Copyright (c) Steve Scherf et al.
# Submitted via: CDex 1.50
#
DISCID=ca0c1110
DTITLE=Piergiorgio Cinelli - TAL AMORE
DYEAR=1900
DGENRE=Blues
TTITLE0=Tòr
TTITLE1=Ansa 'n tupé
TTITLE2=Pasa a l'Ikea
TTITLE3=Nom en serie A
TTITLE4=El gorìla
TTITLE5=Valvestino
TTITLE6=Talamore
TTITLE7=Sere neghér
TTITLE8=El vi' di 'en quartì l'è mèi l'è nostrà
TTITLE9=I pica la Cheti
TTITLE10=De Padenghe a Campione
TTITLE11=El brigante Zanzanù
TTITLE12=Fai na' a cantà
TTITLE13=Samba de 'na nota apéna
TTITLE14=TV blues
TTITLE15=Bonus track
EXTD=
EXTT0=
EXTT1=
EXTT2=
EXTT3=
EXTT4=
EXTT5=
EXTT6=
EXTT7=
EXTT8=
EXTT9=
EXTT10=
EXTT11=
EXTT12=
EXTT13=
EXTT14=
EXTT15=
PLAYORDER=
